<?xml version="1.0" encoding="utf-8" standalone="no"?>
<!DOCTYPE svg PUBLIC "-//W3C//DTD SVG 1.1//EN"
  "http://www.w3.org/Graphics/SVG/1.1/DTD/svg11.dtd">
<svg xmlns:xlink="http://www.w3.org/1999/xlink" width="460.8pt" height="345.6pt" viewBox="0 0 460.8 345.6" xmlns="http://www.w3.org/2000/svg" version="1.1">
 <metadata>
  <rdf:RDF xmlns:dc="http://purl.org/dc/elements/1.1/" xmlns:cc="http://creativecommons.org/ns#" xmlns:rdf="http://www.w3.org/1999/02/22-rdf-syntax-ns#">
   <cc:Work>
    <dc:type rdf:resource="http://purl.org/dc/dcmitype/StillImage"/>
    <dc:date>2023-06-16T16:45:46.721517</dc:date>
    <dc:format>image/svg+xml</dc:format>
    <dc:creator>
     <cc:Agent>
      <dc:title>Matplotlib v3.7.1, https://matplotlib.org/</dc:title>
     </cc:Agent>
    </dc:creator>
   </cc:Work>
  </rdf:RDF>
 </metadata>
 <defs>
  <style type="text/css">*{stroke-linejoin: round; stroke-linecap: butt}</style>
 </defs>
 <g id="figure_1">
  <g id="patch_1">
   <path d="M 0 345.6 
L 460.8 345.6 
L 460.8 0 
L 0 0 
z
" style="fill: #ffffff"/>
  </g>
  <g id="axes_1">
   <g id="patch_2">
    <path d="M 57.6 307.584 
L 414.72 307.584 
L 414.72 41.472 
L 57.6 41.472 
z
" style="fill: #ffffff"/>
   </g>
   <g id="patch_3">
    <path d="M 73.832727 307.584 
L 95.476364 307.584 
L 95.476364 304.242835 
L 73.832727 304.242835 
z
" clip-path="url(#pd2b2c1a984)" style="fill: #ffa500"/>
   </g>
   <g id="patch_4">
    <path d="M 182.050909 307.584 
L 203.694545 307.584 
L 203.694545 282.817507 
L 182.050909 282.817507 
z
" clip-path="url(#pd2b2c1a984)" style="fill: #ffa500"/>
   </g>
   <g id="patch_5">
    <path d="M 290.269091 307.584 
L 311.912727 307.584 
L 311.912727 283.262414 
L 290.269091 283.262414 
z
" clip-path="url(#pd2b2c1a984)" style="fill: #ffa500"/>
   </g>
   <g id="patch_6">
    <path d="M 95.476364 307.584 
L 117.12 307.584 
L 117.12 307.22633 
L 95.476364 307.22633 
z
" clip-path="url(#pd2b2c1a984)" style="fill: #0000ff"/>
   </g>
   <g id="patch_7">
    <path d="M 203.694545 307.584 
L 225.338182 307.584 
L 225.338182 306.388857 
L 203.694545 306.388857 
z
" clip-path="url(#pd2b2c1a984)" style="fill: #0000ff"/>
   </g>
   <g id="patch_8">
    <path d="M 311.912727 307.584 
L 333.556364 307.584 
L 333.556364 298.031584 
L 311.912727 298.031584 
z
" clip-path="url(#pd2b2c1a984)" style="fill: #0000ff"/>
   </g>
   <g id="patch_9">
    <path d="M 117.12 307.584 
L 138.763636 307.584 
L 138.763636 304.591782 
L 117.12 304.591782 
z
" clip-path="url(#pd2b2c1a984)" style="fill: #008000"/>
   </g>
   <g id="patch_10">
    <path d="M 225.338182 307.584 
L 246.981818 307.584 
L 246.981818 280.479564 
L 225.338182 280.479564 
z
" clip-path="url(#pd2b2c1a984)" style="fill: #008000"/>
   </g>
   <g id="patch_11">
    <path d="M 333.556364 307.584 
L 355.2 307.584 
L 355.2 54.144 
L 333.556364 54.144 
z
" clip-path="url(#pd2b2c1a984)" style="fill: #008000"/>
   </g>
   <g id="patch_12">
    <path d="M 138.763636 307.584 
L 160.407273 307.584 
L 160.407273 303.902612 
L 138.763636 303.902612 
z
" clip-path="url(#pd2b2c1a984)" style="fill: #ff0000"/>
   </g>
   <g id="patch_13">
    <path d="M 246.981818 307.584 
L 268.625455 307.584 
L 268.625455 301.869998 
L 246.981818 301.869998 
z
" clip-path="url(#pd2b2c1a984)" style="fill: #ff0000"/>
   </g>
   <g id="patch_14">
    <path d="M 355.2 307.584 
L 376.843636 307.584 
L 376.843636 284.20457 
L 355.2 284.20457 
z
" clip-path="url(#pd2b2c1a984)" style="fill: #ff0000"/>
   </g>
   <g id="patch_15">
    <path d="M 160.407273 307.584 
L 182.050909 307.584 
L 182.050909 275.960704 
L 160.407273 275.960704 
z
" clip-path="url(#pd2b2c1a984)" style="fill: #800080"/>
   </g>
   <g id="patch_16">
    <path d="M 268.625455 307.584 
L 290.269091 307.584 
L 290.269091 267.542364 
L 268.625455 267.542364 
z
" clip-path="url(#pd2b2c1a984)" style="fill: #800080"/>
   </g>
   <g id="patch_17">
    <path d="M 376.843636 307.584 
L 398.487273 307.584 
L 398.487273 232.961745 
L 376.843636 232.961745 
z
" clip-path="url(#pd2b2c1a984)" style="fill: #800080"/>
   </g>
   <g id="matplotlib.axis_1">
    <g id="xtick_1">
     <g id="line2d_1">
      <defs>
       <path id="ma343c0149c" d="M 0 0 
L 0 3.5 
" style="stroke: #000000; stroke-width: 0.8"/>
      </defs>
      <g>
       <use xlink:href="#ma343c0149c" x="171.229091" y="307.584" style="stroke: #000000; stroke-width: 0.8"/>
      </g>
     </g>
     <g id="text_1">
      <!-- 2000 -->
      <g transform="translate(158.504091 322.182437) scale(0.1 -0.1)">
       <defs>
        <path id="DejaVuSans-32" d="M 1228 531 
L 3431 531 
L 3431 0 
L 469 0 
L 469 531 
Q 828 903 1448 1529 
Q 2069 2156 2228 2338 
Q 2531 2678 2651 2914 
Q 2772 3150 2772 3378 
Q 2772 3750 2511 3984 
Q 2250 4219 1831 4219 
Q 1534 4219 1204 4116 
Q 875 4013 500 3803 
L 500 4441 
Q 881 4594 1212 4672 
Q 1544 4750 1819 4750 
Q 2544 4750 2975 4387 
Q 3406 4025 3406 3419 
Q 3406 3131 3298 2873 
Q 3191 2616 2906 2266 
Q 2828 2175 2409 1742 
Q 1991 1309 1228 531 
z
" transform="scale(0.015625)"/>
        <path id="DejaVuSans-30" d="M 2034 4250 
Q 1547 4250 1301 3770 
Q 1056 3291 1056 2328 
Q 1056 1369 1301 889 
Q 1547 409 2034 409 
Q 2525 409 2770 889 
Q 3016 1369 3016 2328 
Q 3016 3291 2770 3770 
Q 2525 4250 2034 4250 
z
M 2034 4750 
Q 2819 4750 3233 4129 
Q 3647 3509 3647 2328 
Q 3647 1150 3233 529 
Q 2819 -91 2034 -91 
Q 1250 -91 836 529 
Q 422 1150 422 2328 
Q 422 3509 836 4129 
Q 1250 4750 2034 4750 
z
" transform="scale(0.015625)"/>
       </defs>
       <use xlink:href="#DejaVuSans-32"/>
       <use xlink:href="#DejaVuSans-30" x="63.623047"/>
       <use xlink:href="#DejaVuSans-30" x="127.246094"/>
       <use xlink:href="#DejaVuSans-30" x="190.869141"/>
      </g>
     </g>
    </g>
    <g id="xtick_2">
     <g id="line2d_2">
      <g>
       <use xlink:href="#ma343c0149c" x="279.447273" y="307.584" style="stroke: #000000; stroke-width: 0.8"/>
      </g>
     </g>
     <g id="text_2">
      <!-- 20000 -->
      <g transform="translate(263.541023 322.182437) scale(0.1 -0.1)">
       <use xlink:href="#DejaVuSans-32"/>
       <use xlink:href="#DejaVuSans-30" x="63.623047"/>
       <use xlink:href="#DejaVuSans-30" x="127.246094"/>
       <use xlink:href="#DejaVuSans-30" x="190.869141"/>
       <use xlink:href="#DejaVuSans-30" x="254.492188"/>
      </g>
     </g>
    </g>
    <g id="xtick_3">
     <g id="line2d_3">
      <g>
       <use xlink:href="#ma343c0149c" x="387.665455" y="307.584" style="stroke: #000000; stroke-width: 0.8"/>
      </g>
     </g>
     <g id="text_3">
      <!-- 200000 -->
      <g transform="translate(368.577955 322.182437) scale(0.1 -0.1)">
       <use xlink:href="#DejaVuSans-32"/>
       <use xlink:href="#DejaVuSans-30" x="63.623047"/>
       <use xlink:href="#DejaVuSans-30" x="127.246094"/>
       <use xlink:href="#DejaVuSans-30" x="190.869141"/>
       <use xlink:href="#DejaVuSans-30" x="254.492188"/>
       <use xlink:href="#DejaVuSans-30" x="318.115234"/>
      </g>
     </g>
    </g>
    <g id="text_4">
     <!-- Input Points -->
     <g transform="translate(206.608437 335.860562) scale(0.1 -0.1)">
      <defs>
       <path id="DejaVuSans-49" d="M 628 4666 
L 1259 4666 
L 1259 0 
L 628 0 
L 628 4666 
z
" transform="scale(0.015625)"/>
       <path id="DejaVuSans-6e" d="M 3513 2113 
L 3513 0 
L 2938 0 
L 2938 2094 
Q 2938 2591 2744 2837 
Q 2550 3084 2163 3084 
Q 1697 3084 1428 2787 
Q 1159 2491 1159 1978 
L 1159 0 
L 581 0 
L 581 3500 
L 1159 3500 
L 1159 2956 
Q 1366 3272 1645 3428 
Q 1925 3584 2291 3584 
Q 2894 3584 3203 3211 
Q 3513 2838 3513 2113 
z
" transform="scale(0.015625)"/>
       <path id="DejaVuSans-70" d="M 1159 525 
L 1159 -1331 
L 581 -1331 
L 581 3500 
L 1159 3500 
L 1159 2969 
Q 1341 3281 1617 3432 
Q 1894 3584 2278 3584 
Q 2916 3584 3314 3078 
Q 3713 2572 3713 1747 
Q 3713 922 3314 415 
Q 2916 -91 2278 -91 
Q 1894 -91 1617 61 
Q 1341 213 1159 525 
z
M 3116 1747 
Q 3116 2381 2855 2742 
Q 2594 3103 2138 3103 
Q 1681 3103 1420 2742 
Q 1159 2381 1159 1747 
Q 1159 1113 1420 752 
Q 1681 391 2138 391 
Q 2594 391 2855 752 
Q 3116 1113 3116 1747 
z
" transform="scale(0.015625)"/>
       <path id="DejaVuSans-75" d="M 544 1381 
L 544 3500 
L 1119 3500 
L 1119 1403 
Q 1119 906 1312 657 
Q 1506 409 1894 409 
Q 2359 409 2629 706 
Q 2900 1003 2900 1516 
L 2900 3500 
L 3475 3500 
L 3475 0 
L 2900 0 
L 2900 538 
Q 2691 219 2414 64 
Q 2138 -91 1772 -91 
Q 1169 -91 856 284 
Q 544 659 544 1381 
z
M 1991 3584 
L 1991 3584 
z
" transform="scale(0.015625)"/>
       <path id="DejaVuSans-74" d="M 1172 4494 
L 1172 3500 
L 2356 3500 
L 2356 3053 
L 1172 3053 
L 1172 1153 
Q 1172 725 1289 603 
Q 1406 481 1766 481 
L 2356 481 
L 2356 0 
L 1766 0 
Q 1100 0 847 248 
Q 594 497 594 1153 
L 594 3053 
L 172 3053 
L 172 3500 
L 594 3500 
L 594 4494 
L 1172 4494 
z
" transform="scale(0.015625)"/>
       <path id="DejaVuSans-20" transform="scale(0.015625)"/>
       <path id="DejaVuSans-50" d="M 1259 4147 
L 1259 2394 
L 2053 2394 
Q 2494 2394 2734 2622 
Q 2975 2850 2975 3272 
Q 2975 3691 2734 3919 
Q 2494 4147 2053 4147 
L 1259 4147 
z
M 628 4666 
L 2053 4666 
Q 2838 4666 3239 4311 
Q 3641 3956 3641 3272 
Q 3641 2581 3239 2228 
Q 2838 1875 2053 1875 
L 1259 1875 
L 1259 0 
L 628 0 
L 628 4666 
z
" transform="scale(0.015625)"/>
       <path id="DejaVuSans-6f" d="M 1959 3097 
Q 1497 3097 1228 2736 
Q 959 2375 959 1747 
Q 959 1119 1226 758 
Q 1494 397 1959 397 
Q 2419 397 2687 759 
Q 2956 1122 2956 1747 
Q 2956 2369 2687 2733 
Q 2419 3097 1959 3097 
z
M 1959 3584 
Q 2709 3584 3137 3096 
Q 3566 2609 3566 1747 
Q 3566 888 3137 398 
Q 2709 -91 1959 -91 
Q 1206 -91 779 398 
Q 353 888 353 1747 
Q 353 2609 779 3096 
Q 1206 3584 1959 3584 
z
" transform="scale(0.015625)"/>
       <path id="DejaVuSans-69" d="M 603 3500 
L 1178 3500 
L 1178 0 
L 603 0 
L 603 3500 
z
M 603 4863 
L 1178 4863 
L 1178 4134 
L 603 4134 
L 603 4863 
z
" transform="scale(0.015625)"/>
       <path id="DejaVuSans-73" d="M 2834 3397 
L 2834 2853 
Q 2591 2978 2328 3040 
Q 2066 3103 1784 3103 
Q 1356 3103 1142 2972 
Q 928 2841 928 2578 
Q 928 2378 1081 2264 
Q 1234 2150 1697 2047 
L 1894 2003 
Q 2506 1872 2764 1633 
Q 3022 1394 3022 966 
Q 3022 478 2636 193 
Q 2250 -91 1575 -91 
Q 1294 -91 989 -36 
Q 684 19 347 128 
L 347 722 
Q 666 556 975 473 
Q 1284 391 1588 391 
Q 1994 391 2212 530 
Q 2431 669 2431 922 
Q 2431 1156 2273 1281 
Q 2116 1406 1581 1522 
L 1381 1569 
Q 847 1681 609 1914 
Q 372 2147 372 2553 
Q 372 3047 722 3315 
Q 1072 3584 1716 3584 
Q 2034 3584 2315 3537 
Q 2597 3491 2834 3397 
z
" transform="scale(0.015625)"/>
      </defs>
      <use xlink:href="#DejaVuSans-49"/>
      <use xlink:href="#DejaVuSans-6e" x="29.492188"/>
      <use xlink:href="#DejaVuSans-70" x="92.871094"/>
      <use xlink:href="#DejaVuSans-75" x="156.347656"/>
      <use xlink:href="#DejaVuSans-74" x="219.726562"/>
      <use xlink:href="#DejaVuSans-20" x="258.935547"/>
      <use xlink:href="#DejaVuSans-50" x="290.722656"/>
      <use xlink:href="#DejaVuSans-6f" x="347.400391"/>
      <use xlink:href="#DejaVuSans-69" x="408.582031"/>
      <use xlink:href="#DejaVuSans-6e" x="436.365234"/>
      <use xlink:href="#DejaVuSans-74" x="499.744141"/>
      <use xlink:href="#DejaVuSans-73" x="538.953125"/>
     </g>
    </g>
   </g>
   <g id="matplotlib.axis_2">
    <g id="ytick_1">
     <g id="line2d_4">
      <defs>
       <path id="mccac6f86c3" d="M 0 0 
L -3.5 0 
" style="stroke: #000000; stroke-width: 0.8"/>
      </defs>
      <g>
       <use xlink:href="#mccac6f86c3" x="57.6" y="307.584" style="stroke: #000000; stroke-width: 0.8"/>
      </g>
     </g>
     <g id="text_5">
      <!-- 0 -->
      <g transform="translate(44.2375 311.383219) scale(0.1 -0.1)">
       <use xlink:href="#DejaVuSans-30"/>
      </g>
     </g>
    </g>
    <g id="ytick_2">
     <g id="line2d_5">
      <g>
       <use xlink:href="#mccac6f86c3" x="57.6" y="263.96566" style="stroke: #000000; stroke-width: 0.8"/>
      </g>
     </g>
     <g id="text_6">
      <!-- 5000 -->
      <g transform="translate(25.15 267.764879) scale(0.1 -0.1)">
       <defs>
        <path id="DejaVuSans-35" d="M 691 4666 
L 3169 4666 
L 3169 4134 
L 1269 4134 
L 1269 2991 
Q 1406 3038 1543 3061 
Q 1681 3084 1819 3084 
Q 2600 3084 3056 2656 
Q 3513 2228 3513 1497 
Q 3513 744 3044 326 
Q 2575 -91 1722 -91 
Q 1428 -91 1123 -41 
Q 819 9 494 109 
L 494 744 
Q 775 591 1075 516 
Q 1375 441 1709 441 
Q 2250 441 2565 725 
Q 2881 1009 2881 1497 
Q 2881 1984 2565 2268 
Q 2250 2553 1709 2553 
Q 1456 2553 1204 2497 
Q 953 2441 691 2322 
L 691 4666 
z
" transform="scale(0.015625)"/>
       </defs>
       <use xlink:href="#DejaVuSans-35"/>
       <use xlink:href="#DejaVuSans-30" x="63.623047"/>
       <use xlink:href="#DejaVuSans-30" x="127.246094"/>
       <use xlink:href="#DejaVuSans-30" x="190.869141"/>
      </g>
     </g>
    </g>
    <g id="ytick_3">
     <g id="line2d_6">
      <g>
       <use xlink:href="#mccac6f86c3" x="57.6" y="220.347321" style="stroke: #000000; stroke-width: 0.8"/>
      </g>
     </g>
     <g id="text_7">
      <!-- 10000 -->
      <g transform="translate(18.7875 224.14654) scale(0.1 -0.1)">
       <defs>
        <path id="DejaVuSans-31" d="M 794 531 
L 1825 531 
L 1825 4091 
L 703 3866 
L 703 4441 
L 1819 4666 
L 2450 4666 
L 2450 531 
L 3481 531 
L 3481 0 
L 794 0 
L 794 531 
z
" transform="scale(0.015625)"/>
       </defs>
       <use xlink:href="#DejaVuSans-31"/>
       <use xlink:href="#DejaVuSans-30" x="63.623047"/>
       <use xlink:href="#DejaVuSans-30" x="127.246094"/>
       <use xlink:href="#DejaVuSans-30" x="190.869141"/>
       <use xlink:href="#DejaVuSans-30" x="254.492188"/>
      </g>
     </g>
    </g>
    <g id="ytick_4">
     <g id="line2d_7">
      <g>
       <use xlink:href="#mccac6f86c3" x="57.6" y="176.728981" style="stroke: #000000; stroke-width: 0.8"/>
      </g>
     </g>
     <g id="text_8">
      <!-- 15000 -->
      <g transform="translate(18.7875 180.5282) scale(0.1 -0.1)">
       <use xlink:href="#DejaVuSans-31"/>
       <use xlink:href="#DejaVuSans-35" x="63.623047"/>
       <use xlink:href="#DejaVuSans-30" x="127.246094"/>
       <use xlink:href="#DejaVuSans-30" x="190.869141"/>
       <use xlink:href="#DejaVuSans-30" x="254.492188"/>
      </g>
     </g>
    </g>
    <g id="ytick_5">
     <g id="line2d_8">
      <g>
       <use xlink:href="#mccac6f86c3" x="57.6" y="133.110642" style="stroke: #000000; stroke-width: 0.8"/>
      </g>
     </g>
     <g id="text_9">
      <!-- 20000 -->
      <g transform="translate(18.7875 136.909861) scale(0.1 -0.1)">
       <use xlink:href="#DejaVuSans-32"/>
       <use xlink:href="#DejaVuSans-30" x="63.623047"/>
       <use xlink:href="#DejaVuSans-30" x="127.246094"/>
       <use xlink:href="#DejaVuSans-30" x="190.869141"/>
       <use xlink:href="#DejaVuSans-30" x="254.492188"/>
      </g>
     </g>
    </g>
    <g id="ytick_6">
     <g id="line2d_9">
      <g>
       <use xlink:href="#mccac6f86c3" x="57.6" y="89.492302" style="stroke: #000000; stroke-width: 0.8"/>
      </g>
     </g>
     <g id="text_10">
      <!-- 25000 -->
      <g transform="translate(18.7875 93.291521) scale(0.1 -0.1)">
       <use xlink:href="#DejaVuSans-32"/>
       <use xlink:href="#DejaVuSans-35" x="63.623047"/>
       <use xlink:href="#DejaVuSans-30" x="127.246094"/>
       <use xlink:href="#DejaVuSans-30" x="190.869141"/>
       <use xlink:href="#DejaVuSans-30" x="254.492188"/>
      </g>
     </g>
    </g>
    <g id="ytick_7">
     <g id="line2d_10">
      <g>
       <use xlink:href="#mccac6f86c3" x="57.6" y="45.873963" style="stroke: #000000; stroke-width: 0.8"/>
      </g>
     </g>
     <g id="text_11">
      <!-- 30000 -->
      <g transform="translate(18.7875 49.673182) scale(0.1 -0.1)">
       <defs>
        <path id="DejaVuSans-33" d="M 2597 2516 
Q 3050 2419 3304 2112 
Q 3559 1806 3559 1356 
Q 3559 666 3084 287 
Q 2609 -91 1734 -91 
Q 1441 -91 1130 -33 
Q 819 25 488 141 
L 488 750 
Q 750 597 1062 519 
Q 1375 441 1716 441 
Q 2309 441 2620 675 
Q 2931 909 2931 1356 
Q 2931 1769 2642 2001 
Q 2353 2234 1838 2234 
L 1294 2234 
L 1294 2753 
L 1863 2753 
Q 2328 2753 2575 2939 
Q 2822 3125 2822 3475 
Q 2822 3834 2567 4026 
Q 2313 4219 1838 4219 
Q 1578 4219 1281 4162 
Q 984 4106 628 3988 
L 628 4550 
Q 988 4650 1302 4700 
Q 1616 4750 1894 4750 
Q 2613 4750 3031 4423 
Q 3450 4097 3450 3541 
Q 3450 3153 3228 2886 
Q 3006 2619 2597 2516 
z
" transform="scale(0.015625)"/>
       </defs>
       <use xlink:href="#DejaVuSans-33"/>
       <use xlink:href="#DejaVuSans-30" x="63.623047"/>
       <use xlink:href="#DejaVuSans-30" x="127.246094"/>
       <use xlink:href="#DejaVuSans-30" x="190.869141"/>
       <use xlink:href="#DejaVuSans-30" x="254.492188"/>
      </g>
     </g>
    </g>
    <g id="text_12">
     <!-- Average Running Time (μs) -->
     <g transform="translate(12.707812 242.236594) rotate(-90) scale(0.1 -0.1)">
      <defs>
       <path id="DejaVuSans-41" d="M 2188 4044 
L 1331 1722 
L 3047 1722 
L 2188 4044 
z
M 1831 4666 
L 2547 4666 
L 4325 0 
L 3669 0 
L 3244 1197 
L 1141 1197 
L 716 0 
L 50 0 
L 1831 4666 
z
" transform="scale(0.015625)"/>
       <path id="DejaVuSans-76" d="M 191 3500 
L 800 3500 
L 1894 563 
L 2988 3500 
L 3597 3500 
L 2284 0 
L 1503 0 
L 191 3500 
z
" transform="scale(0.015625)"/>
       <path id="DejaVuSans-65" d="M 3597 1894 
L 3597 1613 
L 953 1613 
Q 991 1019 1311 708 
Q 1631 397 2203 397 
Q 2534 397 2845 478 
Q 3156 559 3463 722 
L 3463 178 
Q 3153 47 2828 -22 
Q 2503 -91 2169 -91 
Q 1331 -91 842 396 
Q 353 884 353 1716 
Q 353 2575 817 3079 
Q 1281 3584 2069 3584 
Q 2775 3584 3186 3129 
Q 3597 2675 3597 1894 
z
M 3022 2063 
Q 3016 2534 2758 2815 
Q 2500 3097 2075 3097 
Q 1594 3097 1305 2825 
Q 1016 2553 972 2059 
L 3022 2063 
z
" transform="scale(0.015625)"/>
       <path id="DejaVuSans-72" d="M 2631 2963 
Q 2534 3019 2420 3045 
Q 2306 3072 2169 3072 
Q 1681 3072 1420 2755 
Q 1159 2438 1159 1844 
L 1159 0 
L 581 0 
L 581 3500 
L 1159 3500 
L 1159 2956 
Q 1341 3275 1631 3429 
Q 1922 3584 2338 3584 
Q 2397 3584 2469 3576 
Q 2541 3569 2628 3553 
L 2631 2963 
z
" transform="scale(0.015625)"/>
       <path id="DejaVuSans-61" d="M 2194 1759 
Q 1497 1759 1228 1600 
Q 959 1441 959 1056 
Q 959 750 1161 570 
Q 1363 391 1709 391 
Q 2188 391 2477 730 
Q 2766 1069 2766 1631 
L 2766 1759 
L 2194 1759 
z
M 3341 1997 
L 3341 0 
L 2766 0 
L 2766 531 
Q 2569 213 2275 61 
Q 1981 -91 1556 -91 
Q 1019 -91 701 211 
Q 384 513 384 1019 
Q 384 1609 779 1909 
Q 1175 2209 1959 2209 
L 2766 2209 
L 2766 2266 
Q 2766 2663 2505 2880 
Q 2244 3097 1772 3097 
Q 1472 3097 1187 3025 
Q 903 2953 641 2809 
L 641 3341 
Q 956 3463 1253 3523 
Q 1550 3584 1831 3584 
Q 2591 3584 2966 3190 
Q 3341 2797 3341 1997 
z
" transform="scale(0.015625)"/>
       <path id="DejaVuSans-67" d="M 2906 1791 
Q 2906 2416 2648 2759 
Q 2391 3103 1925 3103 
Q 1463 3103 1205 2759 
Q 947 2416 947 1791 
Q 947 1169 1205 825 
Q 1463 481 1925 481 
Q 2391 481 2648 825 
Q 2906 1169 2906 1791 
z
M 3481 434 
Q 3481 -459 3084 -895 
Q 2688 -1331 1869 -1331 
Q 1566 -1331 1297 -1286 
Q 1028 -1241 775 -1147 
L 775 -588 
Q 1028 -725 1275 -790 
Q 1522 -856 1778 -856 
Q 2344 -856 2625 -561 
Q 2906 -266 2906 331 
L 2906 616 
Q 2728 306 2450 153 
Q 2172 0 1784 0 
Q 1141 0 747 490 
Q 353 981 353 1791 
Q 353 2603 747 3093 
Q 1141 3584 1784 3584 
Q 2172 3584 2450 3431 
Q 2728 3278 2906 2969 
L 2906 3500 
L 3481 3500 
L 3481 434 
z
" transform="scale(0.015625)"/>
       <path id="DejaVuSans-52" d="M 2841 2188 
Q 3044 2119 3236 1894 
Q 3428 1669 3622 1275 
L 4263 0 
L 3584 0 
L 2988 1197 
Q 2756 1666 2539 1819 
Q 2322 1972 1947 1972 
L 1259 1972 
L 1259 0 
L 628 0 
L 628 4666 
L 2053 4666 
Q 2853 4666 3247 4331 
Q 3641 3997 3641 3322 
Q 3641 2881 3436 2590 
Q 3231 2300 2841 2188 
z
M 1259 4147 
L 1259 2491 
L 2053 2491 
Q 2509 2491 2742 2702 
Q 2975 2913 2975 3322 
Q 2975 3731 2742 3939 
Q 2509 4147 2053 4147 
L 1259 4147 
z
" transform="scale(0.015625)"/>
       <path id="DejaVuSans-54" d="M -19 4666 
L 3928 4666 
L 3928 4134 
L 2272 4134 
L 2272 0 
L 1638 0 
L 1638 4134 
L -19 4134 
L -19 4666 
z
" transform="scale(0.015625)"/>
       <path id="DejaVuSans-6d" d="M 3328 2828 
Q 3544 3216 3844 3400 
Q 4144 3584 4550 3584 
Q 5097 3584 5394 3201 
Q 5691 2819 5691 2113 
L 5691 0 
L 5113 0 
L 5113 2094 
Q 5113 2597 4934 2840 
Q 4756 3084 4391 3084 
Q 3944 3084 3684 2787 
Q 3425 2491 3425 1978 
L 3425 0 
L 2847 0 
L 2847 2094 
Q 2847 2600 2669 2842 
Q 2491 3084 2119 3084 
Q 1678 3084 1418 2786 
Q 1159 2488 1159 1978 
L 1159 0 
L 581 0 
L 581 3500 
L 1159 3500 
L 1159 2956 
Q 1356 3278 1631 3431 
Q 1906 3584 2284 3584 
Q 2666 3584 2933 3390 
Q 3200 3197 3328 2828 
z
" transform="scale(0.015625)"/>
       <path id="DejaVuSans-28" d="M 1984 4856 
Q 1566 4138 1362 3434 
Q 1159 2731 1159 2009 
Q 1159 1288 1364 580 
Q 1569 -128 1984 -844 
L 1484 -844 
Q 1016 -109 783 600 
Q 550 1309 550 2009 
Q 550 2706 781 3412 
Q 1013 4119 1484 4856 
L 1984 4856 
z
" transform="scale(0.015625)"/>
       <path id="DejaVuSans-3bc" d="M 544 -1331 
L 544 3500 
L 1119 3500 
L 1119 1325 
Q 1119 872 1334 640 
Q 1550 409 1972 409 
Q 2434 409 2667 671 
Q 2900 934 2900 1459 
L 2900 3500 
L 3475 3500 
L 3475 806 
Q 3475 619 3529 530 
Q 3584 441 3700 441 
Q 3728 441 3778 458 
Q 3828 475 3916 513 
L 3916 50 
Q 3788 -22 3673 -56 
Q 3559 -91 3450 -91 
Q 3234 -91 3106 31 
Q 2978 153 2931 403 
Q 2775 156 2548 32 
Q 2322 -91 2016 -91 
Q 1697 -91 1473 31 
Q 1250 153 1119 397 
L 1119 -1331 
L 544 -1331 
z
" transform="scale(0.015625)"/>
       <path id="DejaVuSans-29" d="M 513 4856 
L 1013 4856 
Q 1481 4119 1714 3412 
Q 1947 2706 1947 2009 
Q 1947 1309 1714 600 
Q 1481 -109 1013 -844 
L 513 -844 
Q 928 -128 1133 580 
Q 1338 1288 1338 2009 
Q 1338 2731 1133 3434 
Q 928 4138 513 4856 
z
" transform="scale(0.015625)"/>
      </defs>
      <use xlink:href="#DejaVuSans-41"/>
      <use xlink:href="#DejaVuSans-76" x="62.533203"/>
      <use xlink:href="#DejaVuSans-65" x="121.712891"/>
      <use xlink:href="#DejaVuSans-72" x="183.236328"/>
      <use xlink:href="#DejaVuSans-61" x="224.349609"/>
      <use xlink:href="#DejaVuSans-67" x="285.628906"/>
      <use xlink:href="#DejaVuSans-65" x="349.105469"/>
      <use xlink:href="#DejaVuSans-20" x="410.628906"/>
      <use xlink:href="#DejaVuSans-52" x="442.416016"/>
      <use xlink:href="#DejaVuSans-75" x="507.398438"/>
      <use xlink:href="#DejaVuSans-6e" x="570.777344"/>
      <use xlink:href="#DejaVuSans-6e" x="634.15625"/>
      <use xlink:href="#DejaVuSans-69" x="697.535156"/>
      <use xlink:href="#DejaVuSans-6e" x="725.318359"/>
      <use xlink:href="#DejaVuSans-67" x="788.697266"/>
      <use xlink:href="#DejaVuSans-20" x="852.173828"/>
      <use xlink:href="#DejaVuSans-54" x="883.960938"/>
      <use xlink:href="#DejaVuSans-69" x="941.919922"/>
      <use xlink:href="#DejaVuSans-6d" x="969.703125"/>
      <use xlink:href="#DejaVuSans-65" x="1067.115234"/>
      <use xlink:href="#DejaVuSans-20" x="1128.638672"/>
      <use xlink:href="#DejaVuSans-28" x="1160.425781"/>
      <use xlink:href="#DejaVuSans-3bc" x="1199.439453"/>
      <use xlink:href="#DejaVuSans-73" x="1263.0625"/>
      <use xlink:href="#DejaVuSans-29" x="1315.162109"/>
     </g>
    </g>
   </g>
   <g id="patch_18">
    <path d="M 57.6 307.584 
L 57.6 41.472 
" style="fill: none; stroke: #000000; stroke-width: 0.8; stroke-linejoin: miter; stroke-linecap: square"/>
   </g>
   <g id="patch_19">
    <path d="M 414.72 307.584 
L 414.72 41.472 
" style="fill: none; stroke: #000000; stroke-width: 0.8; stroke-linejoin: miter; stroke-linecap: square"/>
   </g>
   <g id="patch_20">
    <path d="M 57.6 307.584 
L 414.72 307.584 
" style="fill: none; stroke: #000000; stroke-width: 0.8; stroke-linejoin: miter; stroke-linecap: square"/>
   </g>
   <g id="patch_21">
    <path d="M 57.6 41.472 
L 414.72 41.472 
" style="fill: none; stroke: #000000; stroke-width: 0.8; stroke-linejoin: miter; stroke-linecap: square"/>
   </g>
   <g id="text_13">
    <!-- Running Time GPU with different implementations -->
    <g transform="translate(85.738125 35.472) scale(0.12 -0.12)">
     <defs>
      <path id="DejaVuSans-47" d="M 3809 666 
L 3809 1919 
L 2778 1919 
L 2778 2438 
L 4434 2438 
L 4434 434 
Q 4069 175 3628 42 
Q 3188 -91 2688 -91 
Q 1594 -91 976 548 
Q 359 1188 359 2328 
Q 359 3472 976 4111 
Q 1594 4750 2688 4750 
Q 3144 4750 3555 4637 
Q 3966 4525 4313 4306 
L 4313 3634 
Q 3963 3931 3569 4081 
Q 3175 4231 2741 4231 
Q 1884 4231 1454 3753 
Q 1025 3275 1025 2328 
Q 1025 1384 1454 906 
Q 1884 428 2741 428 
Q 3075 428 3337 486 
Q 3600 544 3809 666 
z
" transform="scale(0.015625)"/>
      <path id="DejaVuSans-55" d="M 556 4666 
L 1191 4666 
L 1191 1831 
Q 1191 1081 1462 751 
Q 1734 422 2344 422 
Q 2950 422 3222 751 
Q 3494 1081 3494 1831 
L 3494 4666 
L 4128 4666 
L 4128 1753 
Q 4128 841 3676 375 
Q 3225 -91 2344 -91 
Q 1459 -91 1007 375 
Q 556 841 556 1753 
L 556 4666 
z
" transform="scale(0.015625)"/>
      <path id="DejaVuSans-77" d="M 269 3500 
L 844 3500 
L 1563 769 
L 2278 3500 
L 2956 3500 
L 3675 769 
L 4391 3500 
L 4966 3500 
L 4050 0 
L 3372 0 
L 2619 2869 
L 1863 0 
L 1184 0 
L 269 3500 
z
" transform="scale(0.015625)"/>
      <path id="DejaVuSans-68" d="M 3513 2113 
L 3513 0 
L 2938 0 
L 2938 2094 
Q 2938 2591 2744 2837 
Q 2550 3084 2163 3084 
Q 1697 3084 1428 2787 
Q 1159 2491 1159 1978 
L 1159 0 
L 581 0 
L 581 4863 
L 1159 4863 
L 1159 2956 
Q 1366 3272 1645 3428 
Q 1925 3584 2291 3584 
Q 2894 3584 3203 3211 
Q 3513 2838 3513 2113 
z
" transform="scale(0.015625)"/>
      <path id="DejaVuSans-64" d="M 2906 2969 
L 2906 4863 
L 3481 4863 
L 3481 0 
L 2906 0 
L 2906 525 
Q 2725 213 2448 61 
Q 2172 -91 1784 -91 
Q 1150 -91 751 415 
Q 353 922 353 1747 
Q 353 2572 751 3078 
Q 1150 3584 1784 3584 
Q 2172 3584 2448 3432 
Q 2725 3281 2906 2969 
z
M 947 1747 
Q 947 1113 1208 752 
Q 1469 391 1925 391 
Q 2381 391 2643 752 
Q 2906 1113 2906 1747 
Q 2906 2381 2643 2742 
Q 2381 3103 1925 3103 
Q 1469 3103 1208 2742 
Q 947 2381 947 1747 
z
" transform="scale(0.015625)"/>
      <path id="DejaVuSans-66" d="M 2375 4863 
L 2375 4384 
L 1825 4384 
Q 1516 4384 1395 4259 
Q 1275 4134 1275 3809 
L 1275 3500 
L 2222 3500 
L 2222 3053 
L 1275 3053 
L 1275 0 
L 697 0 
L 697 3053 
L 147 3053 
L 147 3500 
L 697 3500 
L 697 3744 
Q 697 4328 969 4595 
Q 1241 4863 1831 4863 
L 2375 4863 
z
" transform="scale(0.015625)"/>
      <path id="DejaVuSans-6c" d="M 603 4863 
L 1178 4863 
L 1178 0 
L 603 0 
L 603 4863 
z
" transform="scale(0.015625)"/>
     </defs>
     <use xlink:href="#DejaVuSans-52"/>
     <use xlink:href="#DejaVuSans-75" x="64.982422"/>
     <use xlink:href="#DejaVuSans-6e" x="128.361328"/>
     <use xlink:href="#DejaVuSans-6e" x="191.740234"/>
     <use xlink:href="#DejaVuSans-69" x="255.119141"/>
     <use xlink:href="#DejaVuSans-6e" x="282.902344"/>
     <use xlink:href="#DejaVuSans-67" x="346.28125"/>
     <use xlink:href="#DejaVuSans-20" x="409.757812"/>
     <use xlink:href="#DejaVuSans-54" x="441.544922"/>
     <use xlink:href="#DejaVuSans-69" x="499.503906"/>
     <use xlink:href="#DejaVuSans-6d" x="527.287109"/>
     <use xlink:href="#DejaVuSans-65" x="624.699219"/>
     <use xlink:href="#DejaVuSans-20" x="686.222656"/>
     <use xlink:href="#DejaVuSans-47" x="718.009766"/>
     <use xlink:href="#DejaVuSans-50" x="795.5"/>
     <use xlink:href="#DejaVuSans-55" x="855.802734"/>
     <use xlink:href="#DejaVuSans-20" x="928.996094"/>
     <use xlink:href="#DejaVuSans-77" x="960.783203"/>
     <use xlink:href="#DejaVuSans-69" x="1042.570312"/>
     <use xlink:href="#DejaVuSans-74" x="1070.353516"/>
     <use xlink:href="#DejaVuSans-68" x="1109.5625"/>
     <use xlink:href="#DejaVuSans-20" x="1172.941406"/>
     <use xlink:href="#DejaVuSans-64" x="1204.728516"/>
     <use xlink:href="#DejaVuSans-69" x="1268.205078"/>
     <use xlink:href="#DejaVuSans-66" x="1295.988281"/>
     <use xlink:href="#DejaVuSans-66" x="1331.193359"/>
     <use xlink:href="#DejaVuSans-65" x="1366.398438"/>
     <use xlink:href="#DejaVuSans-72" x="1427.921875"/>
     <use xlink:href="#DejaVuSans-65" x="1466.785156"/>
     <use xlink:href="#DejaVuSans-6e" x="1528.308594"/>
     <use xlink:href="#DejaVuSans-74" x="1591.6875"/>
     <use xlink:href="#DejaVuSans-20" x="1630.896484"/>
     <use xlink:href="#DejaVuSans-69" x="1662.683594"/>
     <use xlink:href="#DejaVuSans-6d" x="1690.466797"/>
     <use xlink:href="#DejaVuSans-70" x="1787.878906"/>
     <use xlink:href="#DejaVuSans-6c" x="1851.355469"/>
     <use xlink:href="#DejaVuSans-65" x="1879.138672"/>
     <use xlink:href="#DejaVuSans-6d" x="1940.662109"/>
     <use xlink:href="#DejaVuSans-65" x="2038.074219"/>
     <use xlink:href="#DejaVuSans-6e" x="2099.597656"/>
     <use xlink:href="#DejaVuSans-74" x="2162.976562"/>
     <use xlink:href="#DejaVuSans-61" x="2202.185547"/>
     <use xlink:href="#DejaVuSans-74" x="2263.464844"/>
     <use xlink:href="#DejaVuSans-69" x="2302.673828"/>
     <use xlink:href="#DejaVuSans-6f" x="2330.457031"/>
     <use xlink:href="#DejaVuSans-6e" x="2391.638672"/>
     <use xlink:href="#DejaVuSans-73" x="2455.017578"/>
    </g>
   </g>
   <g id="legend_1">
    <g id="patch_22">
     <path d="M 64.6 122.862625 
L 292.626562 122.862625 
Q 294.626562 122.862625 294.626562 120.862625 
L 294.626562 48.472 
Q 294.626562 46.472 292.626562 46.472 
L 64.6 46.472 
Q 62.6 46.472 62.6 48.472 
L 62.6 120.862625 
Q 62.6 122.862625 64.6 122.862625 
z
" style="fill: #ffffff; opacity: 0.8; stroke: #cccccc; stroke-linejoin: miter"/>
    </g>
    <g id="patch_23">
     <path d="M 66.6 58.070438 
L 86.6 58.070438 
L 86.6 51.070438 
L 66.6 51.070438 
z
" style="fill: #ffa500"/>
    </g>
    <g id="text_14">
     <!-- Average Times classic -->
     <g transform="translate(94.6 58.070438) scale(0.1 -0.1)">
      <defs>
       <path id="DejaVuSans-63" d="M 3122 3366 
L 3122 2828 
Q 2878 2963 2633 3030 
Q 2388 3097 2138 3097 
Q 1578 3097 1268 2742 
Q 959 2388 959 1747 
Q 959 1106 1268 751 
Q 1578 397 2138 397 
Q 2388 397 2633 464 
Q 2878 531 3122 666 
L 3122 134 
Q 2881 22 2623 -34 
Q 2366 -91 2075 -91 
Q 1284 -91 818 406 
Q 353 903 353 1747 
Q 353 2603 823 3093 
Q 1294 3584 2113 3584 
Q 2378 3584 2631 3529 
Q 2884 3475 3122 3366 
z
" transform="scale(0.015625)"/>
      </defs>
      <use xlink:href="#DejaVuSans-41"/>
      <use xlink:href="#DejaVuSans-76" x="62.533203"/>
      <use xlink:href="#DejaVuSans-65" x="121.712891"/>
      <use xlink:href="#DejaVuSans-72" x="183.236328"/>
      <use xlink:href="#DejaVuSans-61" x="224.349609"/>
      <use xlink:href="#DejaVuSans-67" x="285.628906"/>
      <use xlink:href="#DejaVuSans-65" x="349.105469"/>
      <use xlink:href="#DejaVuSans-20" x="410.628906"/>
      <use xlink:href="#DejaVuSans-54" x="442.416016"/>
      <use xlink:href="#DejaVuSans-69" x="500.375"/>
      <use xlink:href="#DejaVuSans-6d" x="528.158203"/>
      <use xlink:href="#DejaVuSans-65" x="625.570312"/>
      <use xlink:href="#DejaVuSans-73" x="687.09375"/>
      <use xlink:href="#DejaVuSans-20" x="739.193359"/>
      <use xlink:href="#DejaVuSans-63" x="770.980469"/>
      <use xlink:href="#DejaVuSans-6c" x="825.960938"/>
      <use xlink:href="#DejaVuSans-61" x="853.744141"/>
      <use xlink:href="#DejaVuSans-73" x="915.023438"/>
      <use xlink:href="#DejaVuSans-73" x="967.123047"/>
      <use xlink:href="#DejaVuSans-69" x="1019.222656"/>
      <use xlink:href="#DejaVuSans-63" x="1047.005859"/>
     </g>
    </g>
    <g id="patch_24">
     <path d="M 66.6 72.748563 
L 86.6 72.748563 
L 86.6 65.748563 
L 66.6 65.748563 
z
" style="fill: #0000ff"/>
    </g>
    <g id="text_15">
     <!-- Average Times with Pinned Memory -->
     <g transform="translate(94.6 72.748563) scale(0.1 -0.1)">
      <defs>
       <path id="DejaVuSans-4d" d="M 628 4666 
L 1569 4666 
L 2759 1491 
L 3956 4666 
L 4897 4666 
L 4897 0 
L 4281 0 
L 4281 4097 
L 3078 897 
L 2444 897 
L 1241 4097 
L 1241 0 
L 628 0 
L 628 4666 
z
" transform="scale(0.015625)"/>
       <path id="DejaVuSans-79" d="M 2059 -325 
Q 1816 -950 1584 -1140 
Q 1353 -1331 966 -1331 
L 506 -1331 
L 506 -850 
L 844 -850 
Q 1081 -850 1212 -737 
Q 1344 -625 1503 -206 
L 1606 56 
L 191 3500 
L 800 3500 
L 1894 763 
L 2988 3500 
L 3597 3500 
L 2059 -325 
z
" transform="scale(0.015625)"/>
      </defs>
      <use xlink:href="#DejaVuSans-41"/>
      <use xlink:href="#DejaVuSans-76" x="62.533203"/>
      <use xlink:href="#DejaVuSans-65" x="121.712891"/>
      <use xlink:href="#DejaVuSans-72" x="183.236328"/>
      <use xlink:href="#DejaVuSans-61" x="224.349609"/>
      <use xlink:href="#DejaVuSans-67" x="285.628906"/>
      <use xlink:href="#DejaVuSans-65" x="349.105469"/>
      <use xlink:href="#DejaVuSans-20" x="410.628906"/>
      <use xlink:href="#DejaVuSans-54" x="442.416016"/>
      <use xlink:href="#DejaVuSans-69" x="500.375"/>
      <use xlink:href="#DejaVuSans-6d" x="528.158203"/>
      <use xlink:href="#DejaVuSans-65" x="625.570312"/>
      <use xlink:href="#DejaVuSans-73" x="687.09375"/>
      <use xlink:href="#DejaVuSans-20" x="739.193359"/>
      <use xlink:href="#DejaVuSans-77" x="770.980469"/>
      <use xlink:href="#DejaVuSans-69" x="852.767578"/>
      <use xlink:href="#DejaVuSans-74" x="880.550781"/>
      <use xlink:href="#DejaVuSans-68" x="919.759766"/>
      <use xlink:href="#DejaVuSans-20" x="983.138672"/>
      <use xlink:href="#DejaVuSans-50" x="1014.925781"/>
      <use xlink:href="#DejaVuSans-69" x="1072.978516"/>
      <use xlink:href="#DejaVuSans-6e" x="1100.761719"/>
      <use xlink:href="#DejaVuSans-6e" x="1164.140625"/>
      <use xlink:href="#DejaVuSans-65" x="1227.519531"/>
      <use xlink:href="#DejaVuSans-64" x="1289.042969"/>
      <use xlink:href="#DejaVuSans-20" x="1352.519531"/>
      <use xlink:href="#DejaVuSans-4d" x="1384.306641"/>
      <use xlink:href="#DejaVuSans-65" x="1470.585938"/>
      <use xlink:href="#DejaVuSans-6d" x="1532.109375"/>
      <use xlink:href="#DejaVuSans-6f" x="1629.521484"/>
      <use xlink:href="#DejaVuSans-72" x="1690.703125"/>
      <use xlink:href="#DejaVuSans-79" x="1731.816406"/>
     </g>
    </g>
    <g id="patch_25">
     <path d="M 66.6 87.426688 
L 86.6 87.426688 
L 86.6 80.426688 
L 66.6 80.426688 
z
" style="fill: #008000"/>
    </g>
    <g id="text_16">
     <!-- Average Times with Zero-copy Memory -->
     <g transform="translate(94.6 87.426688) scale(0.1 -0.1)">
      <defs>
       <path id="DejaVuSans-5a" d="M 359 4666 
L 4025 4666 
L 4025 4184 
L 1075 531 
L 4097 531 
L 4097 0 
L 288 0 
L 288 481 
L 3238 4134 
L 359 4134 
L 359 4666 
z
" transform="scale(0.015625)"/>
       <path id="DejaVuSans-2d" d="M 313 2009 
L 1997 2009 
L 1997 1497 
L 313 1497 
L 313 2009 
z
" transform="scale(0.015625)"/>
      </defs>
      <use xlink:href="#DejaVuSans-41"/>
      <use xlink:href="#DejaVuSans-76" x="62.533203"/>
      <use xlink:href="#DejaVuSans-65" x="121.712891"/>
      <use xlink:href="#DejaVuSans-72" x="183.236328"/>
      <use xlink:href="#DejaVuSans-61" x="224.349609"/>
      <use xlink:href="#DejaVuSans-67" x="285.628906"/>
      <use xlink:href="#DejaVuSans-65" x="349.105469"/>
      <use xlink:href="#DejaVuSans-20" x="410.628906"/>
      <use xlink:href="#DejaVuSans-54" x="442.416016"/>
      <use xlink:href="#DejaVuSans-69" x="500.375"/>
      <use xlink:href="#DejaVuSans-6d" x="528.158203"/>
      <use xlink:href="#DejaVuSans-65" x="625.570312"/>
      <use xlink:href="#DejaVuSans-73" x="687.09375"/>
      <use xlink:href="#DejaVuSans-20" x="739.193359"/>
      <use xlink:href="#DejaVuSans-77" x="770.980469"/>
      <use xlink:href="#DejaVuSans-69" x="852.767578"/>
      <use xlink:href="#DejaVuSans-74" x="880.550781"/>
      <use xlink:href="#DejaVuSans-68" x="919.759766"/>
      <use xlink:href="#DejaVuSans-20" x="983.138672"/>
      <use xlink:href="#DejaVuSans-5a" x="1014.925781"/>
      <use xlink:href="#DejaVuSans-65" x="1083.431641"/>
      <use xlink:href="#DejaVuSans-72" x="1144.955078"/>
      <use xlink:href="#DejaVuSans-6f" x="1183.818359"/>
      <use xlink:href="#DejaVuSans-2d" x="1246.875"/>
      <use xlink:href="#DejaVuSans-63" x="1282.958984"/>
      <use xlink:href="#DejaVuSans-6f" x="1337.939453"/>
      <use xlink:href="#DejaVuSans-70" x="1399.121094"/>
      <use xlink:href="#DejaVuSans-79" x="1462.597656"/>
      <use xlink:href="#DejaVuSans-20" x="1521.777344"/>
      <use xlink:href="#DejaVuSans-4d" x="1553.564453"/>
      <use xlink:href="#DejaVuSans-65" x="1639.84375"/>
      <use xlink:href="#DejaVuSans-6d" x="1701.367188"/>
      <use xlink:href="#DejaVuSans-6f" x="1798.779297"/>
      <use xlink:href="#DejaVuSans-72" x="1859.960938"/>
      <use xlink:href="#DejaVuSans-79" x="1901.074219"/>
     </g>
    </g>
    <g id="patch_26">
     <path d="M 66.6 102.104813 
L 86.6 102.104813 
L 86.6 95.104813 
L 66.6 95.104813 
z
" style="fill: #ff0000"/>
    </g>
    <g id="text_17">
     <!-- Average Times with Unified Memory -->
     <g transform="translate(94.6 102.104813) scale(0.1 -0.1)">
      <use xlink:href="#DejaVuSans-41"/>
      <use xlink:href="#DejaVuSans-76" x="62.533203"/>
      <use xlink:href="#DejaVuSans-65" x="121.712891"/>
      <use xlink:href="#DejaVuSans-72" x="183.236328"/>
      <use xlink:href="#DejaVuSans-61" x="224.349609"/>
      <use xlink:href="#DejaVuSans-67" x="285.628906"/>
      <use xlink:href="#DejaVuSans-65" x="349.105469"/>
      <use xlink:href="#DejaVuSans-20" x="410.628906"/>
      <use xlink:href="#DejaVuSans-54" x="442.416016"/>
      <use xlink:href="#DejaVuSans-69" x="500.375"/>
      <use xlink:href="#DejaVuSans-6d" x="528.158203"/>
      <use xlink:href="#DejaVuSans-65" x="625.570312"/>
      <use xlink:href="#DejaVuSans-73" x="687.09375"/>
      <use xlink:href="#DejaVuSans-20" x="739.193359"/>
      <use xlink:href="#DejaVuSans-77" x="770.980469"/>
      <use xlink:href="#DejaVuSans-69" x="852.767578"/>
      <use xlink:href="#DejaVuSans-74" x="880.550781"/>
      <use xlink:href="#DejaVuSans-68" x="919.759766"/>
      <use xlink:href="#DejaVuSans-20" x="983.138672"/>
      <use xlink:href="#DejaVuSans-55" x="1014.925781"/>
      <use xlink:href="#DejaVuSans-6e" x="1088.119141"/>
      <use xlink:href="#DejaVuSans-69" x="1151.498047"/>
      <use xlink:href="#DejaVuSans-66" x="1179.28125"/>
      <use xlink:href="#DejaVuSans-69" x="1214.486328"/>
      <use xlink:href="#DejaVuSans-65" x="1242.269531"/>
      <use xlink:href="#DejaVuSans-64" x="1303.792969"/>
      <use xlink:href="#DejaVuSans-20" x="1367.269531"/>
      <use xlink:href="#DejaVuSans-4d" x="1399.056641"/>
      <use xlink:href="#DejaVuSans-65" x="1485.335938"/>
      <use xlink:href="#DejaVuSans-6d" x="1546.859375"/>
      <use xlink:href="#DejaVuSans-6f" x="1644.271484"/>
      <use xlink:href="#DejaVuSans-72" x="1705.453125"/>
      <use xlink:href="#DejaVuSans-79" x="1746.566406"/>
     </g>
    </g>
    <g id="patch_27">
     <path d="M 66.6 116.782938 
L 86.6 116.782938 
L 86.6 109.782938 
L 66.6 109.782938 
z
" style="fill: #800080"/>
    </g>
    <g id="text_18">
     <!-- Average Times with Thrust -->
     <g transform="translate(94.6 116.782938) scale(0.1 -0.1)">
      <use xlink:href="#DejaVuSans-41"/>
      <use xlink:href="#DejaVuSans-76" x="62.533203"/>
      <use xlink:href="#DejaVuSans-65" x="121.712891"/>
      <use xlink:href="#DejaVuSans-72" x="183.236328"/>
      <use xlink:href="#DejaVuSans-61" x="224.349609"/>
      <use xlink:href="#DejaVuSans-67" x="285.628906"/>
      <use xlink:href="#DejaVuSans-65" x="349.105469"/>
      <use xlink:href="#DejaVuSans-20" x="410.628906"/>
      <use xlink:href="#DejaVuSans-54" x="442.416016"/>
      <use xlink:href="#DejaVuSans-69" x="500.375"/>
      <use xlink:href="#DejaVuSans-6d" x="528.158203"/>
      <use xlink:href="#DejaVuSans-65" x="625.570312"/>
      <use xlink:href="#DejaVuSans-73" x="687.09375"/>
      <use xlink:href="#DejaVuSans-20" x="739.193359"/>
      <use xlink:href="#DejaVuSans-77" x="770.980469"/>
      <use xlink:href="#DejaVuSans-69" x="852.767578"/>
      <use xlink:href="#DejaVuSans-74" x="880.550781"/>
      <use xlink:href="#DejaVuSans-68" x="919.759766"/>
      <use xlink:href="#DejaVuSans-20" x="983.138672"/>
      <use xlink:href="#DejaVuSans-54" x="1014.925781"/>
      <use xlink:href="#DejaVuSans-68" x="1076.009766"/>
      <use xlink:href="#DejaVuSans-72" x="1139.388672"/>
      <use xlink:href="#DejaVuSans-75" x="1180.501953"/>
      <use xlink:href="#DejaVuSans-73" x="1243.880859"/>
      <use xlink:href="#DejaVuSans-74" x="1295.980469"/>
     </g>
    </g>
   </g>
  </g>
 </g>
 <defs>
  <clipPath id="pd2b2c1a984">
   <rect x="57.6" y="41.472" width="357.12" height="266.112"/>
  </clipPath>
 </defs>
</svg>
